<?xml version="1.0" encoding="utf-8"?>
<!-- Generator: Adobe Illustrator 16.0.0, SVG Export Plug-In . SVG Version: 6.00 Build 0)  -->
<!DOCTYPE svg PUBLIC "-//W3C//DTD SVG 1.1//EN" "http://www.w3.org/Graphics/SVG/1.1/DTD/svg11.dtd">
<svg version="1.1" id="圖層_1" xmlns="http://www.w3.org/2000/svg" xmlns:xlink="http://www.w3.org/1999/xlink" x="0px" y="0px"
	 width="37px" height="38px" viewBox="0 0 37 38" enable-background="new 0 0 37 38" xml:space="preserve">
<circle opacity="0.3" fill="#231815" enable-background="new    " cx="18.5" cy="18.209" r="17.209"/>
<circle fill="#FFFFFF" cx="18.5" cy="17.809" r="16.809"/>
<g>
	<path fill="#010100" d="M14.914,17.515l5.947-5.948c0.086-0.085,0.184-0.127,0.293-0.127c0.111,0,0.209,0.042,0.295,0.127
		l0.638,0.638c0.085,0.085,0.128,0.183,0.128,0.294c0,0.11-0.043,0.208-0.128,0.293l-5.017,5.017l5.017,5.017
		c0.085,0.085,0.128,0.184,0.128,0.293c0,0.111-0.043,0.209-0.128,0.295l-0.638,0.637c-0.086,0.086-0.184,0.129-0.295,0.129
		c-0.109,0-0.207-0.043-0.293-0.129l-5.947-5.947c-0.086-0.085-0.129-0.184-0.129-0.294C14.785,17.698,14.828,17.6,14.914,17.515z"
		/>
</g>
</svg>
